<svg id="Слой_1" data-name="Слой 1" xmlns="http://www.w3.org/2000/svg" xmlns:xlink="http://www.w3.org/1999/xlink" viewBox="0 0 1000 1000"><defs><style>.cls-1{fill:url(#Безымянный_градиент_19);}.cls-2,.cls-3,.cls-4,.cls-5{fill:none;stroke-linecap:round;stroke-linejoin:round;stroke-width:50px;}.cls-2{stroke:url(#Безымянный_градиент_131);}.cls-3{stroke:url(#Безымянный_градиент_131-2);}.cls-4{stroke:url(#Безымянный_градиент_131-3);}.cls-5{stroke:url(#Безымянный_градиент_131-4);}.cls-6{fill:url(#Безымянный_градиент_131-5);}.cls-7{fill:url(#Безымянный_градиент_131-6);}.cls-8{fill:url(#Безымянный_градиент_131-7);}.cls-9{fill:url(#Безымянный_градиент_131-8);}.cls-10{fill:url(#Безымянный_градиент_131-9);}</style><linearGradient id="Безымянный_градиент_19" y1="500" x2="1000" y2="500" gradientUnits="userSpaceOnUse"><stop offset="0" stop-color="#2e3192"/><stop offset="0.3" stop-color="#253a93"/><stop offset="0.81" stop-color="#0b5196"/><stop offset="1" stop-color="#005b97"/></linearGradient><linearGradient id="Безымянный_градиент_131" x1="118.35" y1="260.3" x2="402.11" y2="260.3" gradientUnits="userSpaceOnUse"><stop offset="0" stop-color="#fff"/><stop offset="0.28" stop-color="#f6f6f6"/><stop offset="0.75" stop-color="#dcdcdc"/><stop offset="1" stop-color="#ccc"/></linearGradient><linearGradient id="Безымянный_градиент_131-2" x1="118.35" y1="739.84" x2="402.11" y2="739.84" xlink:href="#Безымянный_градиент_131"/><linearGradient id="Безымянный_градиент_131-3" x1="597.89" y1="260.3" x2="881.65" y2="260.3" xlink:href="#Безымянный_градиент_131"/><linearGradient id="Безымянный_градиент_131-4" x1="597.89" y1="739.84" x2="881.65" y2="739.84" xlink:href="#Безымянный_градиент_131"/><linearGradient id="Безымянный_градиент_131-5" x1="288" y1="598.89" x2="485.99" y2="598.89" xlink:href="#Безымянный_градиент_131"/><linearGradient id="Безымянный_градиент_131-6" x1="514.01" y1="598.89" x2="712.14" y2="598.89" xlink:href="#Безымянный_градиент_131"/><linearGradient id="Безымянный_градиент_131-7" x1="683.37" y1="570.31" x2="739.72" y2="570.31" xlink:href="#Безымянный_градиент_131"/><linearGradient id="Безымянный_градиент_131-8" x1="415.75" y1="369.09" x2="584.26" y2="369.09" xlink:href="#Безымянный_градиент_131"/><linearGradient id="Безымянный_градиент_131-9" x1="260.28" y1="570.31" x2="316.57" y2="570.31" xlink:href="#Безымянный_градиент_131"/></defs><rect class="cls-1" width="1000" height="1000" rx="180"/><polyline class="cls-2" points="377.11 143.42 143.35 143.42 143.35 377.18"/><polyline class="cls-3" points="377.11 856.72 143.35 856.72 143.35 622.96"/><polyline class="cls-4" points="622.89 143.42 856.65 143.42 856.65 377.18"/><polyline class="cls-5" points="622.89 856.72 856.65 856.72 856.65 622.96"/><path class="cls-6" d="M485.05,739.78c-6-4.9-12.91-8.49-19.62-12.28-34.79-19.7-71.5-34.26-111.16-40.68a325.07,325.07,0,0,0-49.36-4.14c-11.3-.1-16.47-5.39-16.48-16.74,0-3.58-1.25-8.24.52-10.42,1.64-2,6.55-1.36,10-1.94,24.42-4.07,44.72-26.75,45.42-51.87q.87-31.34,0-62.72c-.8-27.82-24.09-51-52.28-52.74-3.09-.19-4-1.05-3.73-4,.25-3.41,0-6.86.09-10.29.3-8,6.07-13.95,14-13.95,63.84,0,124.69,12.27,180.88,43.91,2.73,1.53,2.63,3.36,2.63,5.68q0,116.08,0,232.18Z"/><path class="cls-7" d="M514.07,739.78q0-116.09-.06-232.18c0-3,.76-4.55,3.53-6.09a336.07,336.07,0,0,1,105.53-37.36,435.23,435.23,0,0,1,74-6.16c8.29,0,14.19,5.78,14.48,14,.15,4.21,1.34,9.06-.32,12.47-1.83,3.77-7.35,1.87-11.2,2.71-25.37,5.52-44.09,27.75-44.52,53.72q-.48,29.49,0,59a55.86,55.86,0,0,0,52.49,54.52c3.26.2,3.83,1.31,3.63,4.09s0,5.62,0,8.43c-.08,10.08-5.51,15.69-15.55,15.78a322.91,322.91,0,0,0-60.86,6.11c-39,7.84-75,23.32-109,43.72-3.81,2.29-7.93,4.14-11.18,7.29Z"/><path class="cls-8" d="M739.72,605c-1.4.29-1.32,1.62-1.66,2.55-4.62,12.66-16.73,20.36-29.53,18.74-13.45-1.71-24.12-11.72-24.6-25.26-.74-20.41-.75-40.88,0-61.28.5-13.89,11.66-24.1,25.48-25.42,12.81-1.21,24.81,7,29,19.65.3.89-.19,2.34,1.33,2.67Z"/><path class="cls-9" d="M510,429.69c25.53-1.16,50.34,1.74,73.55,13.82-2.14,1.6-4.67,1.86-7,2.56a349.1,349.1,0,0,0-72.88,30.78,6.33,6.33,0,0,1-7.18,0,351.65,351.65,0,0,0-76.91-32c-.89-.25-1.74-.6-2.72-.94,5.95-4.4,21.18-9.5,34.72-12.15,12.2-2.39,24.52-1.78,37-2.27-25.12-4.59-45.34-16.81-59.16-38.38s-17-44.78-10-69.41c10.94-38.82,50.8-65.67,89.31-61a85.8,85.8,0,0,1,75.65,84.77C584.41,388,553.3,423,510,429.69Z"/><path class="cls-10" d="M260.37,570.31c0-9.51-.24-19,.05-28.54.42-13.62,9.37-24.2,22.32-26.93a28.08,28.08,0,0,1,33.75,27.63c0,18.55.17,37.11,0,55.67-.15,13.94-9,24.73-22.11,27.59a27.83,27.83,0,0,1-31.13-15.16A30,30,0,0,1,260.33,597q0-13.34,0-26.67Z"/></svg>